# xmcd
#
# Track frame offsets: 
#        150
#        9632
#        23381
#        39405
#        61079
#        80390
#        99785
#        123573
#        134711
#        153299
#        173129
#        185857
#        208240
#        238893
#        262273
#        282090
#        297156
#        314816
#
# Disc length: 4310 seconds
#
# Revision: 0
# Processed by: cddbd v1.5.2PL0 Copyright (c) Steve Scherf et al.
# Submitted via: ExactAudioCopy v1.3
#
DISCID=0710d412
DTITLE=Dolly Parton - For God And Country
DYEAR=2003
DGENRE=Country
TTITLE0=The Lord Is My Shepherd
TTITLE1=The Star Spangled Banner
TTITLE2=God Bless The USA
TTITLE3=Light Of A Clear Blue Morning
TTITLE4=When Johnny Comes Marching Home
TTITLE5=Welcome Home
TTITLE6=Gee, Ma, I Wanna Go Home
TTITLE7=Whispering Hope
TTITLE8=There Will Be Peace In The Valley For Me
TTITLE9=Red, White And Bluegrass
TTITLE10=My Country 'Tis
TTITLE11=I'm Gonna Miss You
TTITLE12=Go To Hell
TTITLE13=Ballad Of The Green Beret
TTITLE14=Brave Little Soldier
TTITLE15=Tie A Yellow Ribbon
TTITLE16=Color Me America
TTITLE17=The Glory Forever
EXTD=
EXTT0=
EXTT1=
EXTT2=
EXTT3=
EXTT4=
EXTT5=
EXTT6=
EXTT7=
EXTT8=
EXTT9=
EXTT10=
EXTT11=
EXTT12=
EXTT13=
EXTT14=
EXTT15=
EXTT16=
EXTT17=
PLAYORDER=
